<?xml version="1.0" standalone="no"?>
<!DOCTYPE svg PUBLIC "-//W3C//DTD SVG 20010904//EN"
 "http://www.w3.org/TR/2001/REC-SVG-20010904/DTD/svg10.dtd">
<svg version="1.1" id="Layer_1" xmlns="http://www.w3.org/2000/svg" xmlns:xlink="http://www.w3.org/1999/xlink" x="0px" y="0px"
	 width="1000px" height="1000px" viewBox="0 0 1000 1000" enable-background="new 0 0 1000 1000" xml:space="preserve">
<rect x="375.408" y="439.859" transform="matrix(-0.7071 0.7071 -0.7071 -0.7071 1074.1309 447.9761)" fill="#3F51B5" width="137.758" height="13.177"/>
<rect x="412.254" y="476.706" transform="matrix(-0.7071 0.7071 -0.7071 -0.7071 1163.0852 484.8222)" fill="#3F51B5" width="137.758" height="13.177"/>
<path fill="#EC407A" stroke="#3F51B5" stroke-width="11" stroke-miterlimit="10" d="M561.418,465.283l-13.569-48.704l-45.455,45.455
	l13.569,48.704c1.903,6.829,6.984,8.826,11.35,4.46l29.645-29.645C561.324,481.187,563.321,472.112,561.418,465.283z"/>
<path fill="#EC407A" stroke="#3F51B5" stroke-width="11" stroke-miterlimit="10" d="M462.298,366.163l48.704,13.569l-45.455,45.455
	l-48.704-13.569c-6.829-1.903-8.826-6.984-4.46-11.35l29.645-29.645C446.394,366.257,455.469,364.261,462.298,366.163z"/>
<g>
	<path fill="#CFDBE5" d="M518.434,461.867c25.391-7.659,50.464-22.378,71.883-43.797c37.909-37.909,54.845-87.266,48.761-129.567
		c-42.301-6.084-91.658,10.853-129.567,48.761c-21.419,21.419-36.138,46.493-43.797,71.883L518.434,461.867z"/>
	<path fill="#B9CAD6" d="M639.078,288.503L492.074,435.507l26.36,26.36c25.391-7.659,50.464-22.378,71.883-43.797
		C628.225,380.161,645.162,330.804,639.078,288.503z"/>
	<path fill="#EC407A" d="M596.271,331.31c10.334,10.334,22.439,17.809,35.333,22.459c7.883-21.996,10.464-44.483,7.474-65.266
		c-20.784-2.989-43.27-0.408-65.266,7.475C578.462,308.872,585.937,320.976,596.271,331.31z"/>
	<path fill="#E22962" d="M631.604,353.77c7.883-21.996,10.464-44.483,7.474-65.266l-42.807,42.807
		C606.605,341.644,618.709,349.119,631.604,353.77z"/>
	<circle fill="#3F51B5" stroke="#EC407A" stroke-width="6" stroke-miterlimit="10" cx="569.477" cy="358.104" r="16.841"/>
</g>
<path fill="#EC407A" d="M467.231,420.342c-14.388,17.863-20.587,39.248-17.903,57.91c18.662,2.684,40.047-3.514,57.91-17.903
	L467.231,420.342z"/>
<path fill="#FF715A" d="M471.333,424.445c-11.438,14.2-16.365,31.199-14.231,46.034c14.835,2.134,31.834-2.793,46.034-14.231
	L471.333,424.445z"/>
<path fill="#FFB55C" d="M476.497,429.608c-7.724,9.589-11.051,21.068-9.61,31.086c10.018,1.441,21.497-1.886,31.086-9.61
	L476.497,429.608z"/>
<line fill="#EC407A" stroke="#3F51B5" stroke-width="15" stroke-linecap="round" stroke-miterlimit="10" x1="464.668" y1="410.194" x2="517.387" y2="462.913"/>
<g>
	<path fill="#3F51B5" d="M415.85,335.037c31.169-31.169,75.139-41.923,115.143-32.267c5.058-3.339,10.224-6.402,15.477-9.183
		c-47.405-16.355-102.158-5.647-139.937,32.132c-48.76,48.76-52.427,125.791-11.011,178.81l9.398-9.398
		C368.597,447.326,372.236,378.651,415.85,335.037z"/>
	<path fill="#3F51B5" d="M632.22,384.376c-2.997,5.394-6.288,10.692-9.877,15.866c6.594,37.856-4.69,78.247-33.866,107.422
		c-42.198,42.198-107.857,46.975-155.375,14.344l-9.459,9.459c52.792,37.687,126.802,32.865,174.152-14.485
		C633.641,481.134,645.11,430.008,632.22,384.376z"/>
</g>
<g>
	<g>
		<path fill="#37474F" d="M359.828,653.973h-40.075l-9.516,26.941h-8.578c-1.921,0-3.216-0.648-3.887-1.943
			c-0.536-1.207-0.536-2.658,0-4.357l28.951-81.692c0.805-2.323,2.469-4.088,4.993-5.294c2.523-1.207,5.216-1.81,8.075-1.81
			c2.814,0,5.484,0.603,8.008,1.81c2.524,1.206,4.211,2.971,5.06,5.294l31.23,87.992h-9.382c-3.575,0-5.964-1.743-7.17-5.228
			L359.828,653.973z M341.331,601.7h-3.016l-13.605,38.467h30.224L341.331,601.7z"/>
		<path fill="#37474F" d="M464,668.382c3.574-0.714,6.611-2.099,9.114-4.155c2.322-1.965,3.887-4.311,4.691-7.036
			c0.491-1.653,0.603-3.462,0.335-5.428c-0.313-1.921-1.05-3.663-2.211-5.228c-1.117-1.384-2.614-2.613-4.49-3.686
			c-2.011-1.027-4.088-1.719-6.232-2.078c-1.698-0.268-4.402-0.402-8.109-0.402c-1.921,0.045-3.865,0.078-5.83,0.1
			c-1.967,0.023-3.91-0.033-5.83-0.167c-4.469-0.268-8.288-0.915-11.46-1.943c-3.664-1.162-6.747-2.792-9.248-4.892
			c-2.056-1.698-3.843-3.775-5.362-6.233c-1.43-2.322-2.435-4.847-3.015-7.572c-0.627-2.725-0.827-5.495-0.603-8.31
			c0.312-4.065,1.518-7.908,3.618-11.527c2.234-3.753,5.183-6.88,8.847-9.382c3.529-2.323,7.505-4.021,11.928-5.093
			c3.887-0.938,8.466-1.407,13.739-1.407c4.155,0,8.176,0.536,12.063,1.609c3.842,1.117,7.528,2.747,11.058,4.892
			c3.171,1.921,6.075,4.423,8.712,7.506c2.502,3.083,4.333,6.456,5.495,10.119l-5.361,2.412c-1.743,0.805-3.631,1.005-5.663,0.603
			c-2.034-0.402-3.564-1.474-4.59-3.216c-0.805-1.25-1.766-2.413-2.882-3.485c-1.117-0.982-2.323-1.876-3.618-2.681
			c-1.876-1.116-3.82-1.987-5.83-2.614c-3.217-0.938-6.568-1.407-10.053-1.407c-3.887,0-7.395,0.425-10.522,1.274
			c-3.977,0.983-7.194,2.815-9.65,5.495c-2.055,2.278-3.217,4.915-3.485,7.908c-0.313,3.082,0.513,5.808,2.48,8.176
			c1.518,1.966,3.596,3.396,6.232,4.289c2.636,1.029,6.032,1.609,10.187,1.743c1.652,0.09,3.327,0.123,5.026,0.1
			c1.698-0.022,3.395-0.033,5.093-0.033c2.59,0,4.825,0.112,6.701,0.335c4.602,0.447,8.668,1.564,12.197,3.351
			c3.887,1.967,7.103,4.624,9.65,7.975c2.502,3.351,4.065,7.149,4.691,11.393c0.58,4.2,0.245,8.266-1.005,12.197
			c-1.207,3.798-3.15,7.149-5.83,10.053c-2.637,2.904-5.787,5.25-9.449,7.037c-3.753,1.832-7.975,3.015-12.666,3.551
			c-2.725,0.312-5.719,0.469-8.98,0.469c-2.681,0-5.697-0.223-9.047-0.67c-3.441-0.58-6.39-1.384-8.846-2.412
			c-3.128-1.162-5.809-2.547-8.042-4.155c-2.547-1.697-4.781-3.753-6.701-6.165c-2.503-3.083-4.357-6.635-5.563-10.656l5.294-2.412
			c1.743-0.759,3.619-0.938,5.63-0.536s3.552,1.431,4.624,3.083c0.58,0.983,1.229,1.833,1.943,2.547
			c0.76,0.76,1.541,1.474,2.346,2.144c1.697,1.341,3.618,2.413,5.763,3.217c1.743,0.715,3.842,1.297,6.299,1.742
			c2.725,0.448,5.338,0.627,7.841,0.536C458.237,669.253,461.096,668.963,464,668.382z"/>
		<path fill="#37474F" d="M549.477,664.696c2.145,1.742,4.646,2.927,7.507,3.551c2.857,0.626,5.629,0.938,8.309,0.938
			c2.547,0,5.294-0.312,8.243-0.938c2.949-0.625,5.496-1.809,7.641-3.551c2.992-2.413,4.489-5.987,4.489-10.723v-12.867
			c-3.306,1.877-6.768,3.15-10.388,3.82c-3.618,0.67-6.948,1.005-9.985,1.005c-3.753,0-7.874-0.536-12.364-1.609
			c-4.49-1.072-8.545-3.083-12.164-6.032c-2.86-2.278-5.183-5.171-6.97-8.679c-1.788-3.507-2.68-7.762-2.68-12.767v-3.887
			c0-4.959,0.893-9.191,2.68-12.699c1.786-3.507,4.11-6.4,6.97-8.679c3.618-2.949,7.673-4.959,12.164-6.032
			c4.49-1.072,8.612-1.609,12.364-1.609s7.874,0.536,12.364,1.609c4.49,1.072,8.567,3.083,12.231,6.032
			c2.814,2.278,5.126,5.172,6.936,8.679c1.81,3.508,2.714,7.74,2.714,12.699v41.014c0,5.004-0.904,9.26-2.714,12.767
			c-1.81,3.508-4.121,6.4-6.936,8.679c-3.664,2.949-7.741,4.949-12.231,5.998c-4.49,1.05-8.612,1.575-12.364,1.575
			s-7.874-0.524-12.364-1.575c-4.49-1.049-8.545-3.049-12.164-5.998c-4.648-3.619-7.617-8.354-8.914-14.207l5.63-2.882
			c1.384-0.67,2.971-0.971,4.757-0.904c1.786,0.067,3.061,0.995,3.82,2.781C546.818,662.082,547.957,663.579,549.477,664.696z
			 M585.665,612.959c0-4.601-1.497-8.176-4.489-10.722c-2.145-1.697-4.692-2.859-7.641-3.485c-2.949-0.625-5.695-0.938-8.243-0.938
			c-2.546,0-5.294,0.313-8.243,0.938c-2.949,0.626-5.474,1.788-7.573,3.485c-3.039,2.547-4.557,6.122-4.557,10.722v3.887
			c0,4.736,1.518,8.311,4.557,10.723c2.099,1.742,4.624,2.927,7.573,3.552c2.949,0.626,5.697,0.938,8.243,0.938
			c2.547,0,5.294-0.312,8.243-0.938c2.949-0.625,5.496-1.81,7.641-3.552c2.992-2.412,4.489-5.987,4.489-10.723V612.959z"/>
		<path fill="#37474F" d="M664.975,624.419h9.517c1.115,0,2.288-0.01,3.518-0.033c1.229-0.022,2.446-0.167,3.652-0.436
			c2.546-0.491,4.378-1.876,5.495-4.155c0.938-1.92,1.409-4.199,1.409-6.836c0-4.601-1.498-8.176-4.49-10.722
			c-2.145-1.697-4.692-2.859-7.641-3.485c-2.949-0.625-5.695-0.938-8.243-0.938c-2.68,0-5.452,0.302-8.309,0.905
			c-2.86,0.603-5.362,1.776-7.507,3.518c-1.474,1.207-2.592,2.726-3.35,4.557c-0.805,1.787-2.102,2.726-3.888,2.815
			c-1.786,0.09-3.373-0.245-4.757-1.005l-5.629-2.814c1.339-5.763,4.31-10.498,8.913-14.207c3.618-2.949,7.673-4.959,12.164-6.032
			c4.49-1.072,8.612-1.609,12.364-1.609c3.753,0,7.884,0.536,12.398,1.609c4.512,1.072,8.578,3.083,12.197,6.032
			c2.814,2.278,5.126,5.172,6.936,8.679c1.81,3.508,2.714,7.74,2.714,12.699c0,7.506-2.211,13.717-6.635,18.631
			c4.424,4.87,6.635,11.035,6.635,18.496v3.887c0,5.004-0.904,9.26-2.714,12.767c-1.81,3.508-4.121,6.4-6.936,8.679
			c-3.62,2.949-7.685,4.949-12.197,5.998c-4.514,1.05-8.645,1.575-12.398,1.575c-3.753,0-7.874-0.524-12.364-1.575
			c-4.49-1.049-8.545-3.049-12.164-5.998c-4.602-3.663-7.573-8.399-8.913-14.207l5.629-2.882c1.384-0.67,2.971-0.971,4.757-0.904
			c1.786,0.067,3.083,0.995,3.888,2.781c0.804,1.921,1.919,3.418,3.35,4.49c2.145,1.787,4.646,2.982,7.507,3.585
			c2.857,0.603,5.629,0.904,8.309,0.904c2.547,0,5.294-0.312,8.243-0.938c2.949-0.625,5.496-1.809,7.641-3.551
			c2.992-2.413,4.49-5.987,4.49-10.723v-3.887c0-3.038-0.693-5.517-2.078-7.439c-1.385-1.876-3.173-3.149-5.361-3.82
			c-1.521-0.402-3.732-0.603-6.635-0.603H657.67v-6.232C657.67,626.943,660.105,624.419,664.975,624.419z"/>
	</g>
</g>
<g>
	<g>
		<path fill="#EC407A" d="M298.054,710.713c0-5.26,3.957-8.808,9.089-8.808c3.727,0,5.897,2.017,7.097,4.161l-3.115,1.532
			c-0.715-1.379-2.246-2.477-3.983-2.477c-3.115,0-5.361,2.375-5.361,5.592c0,3.216,2.246,5.591,5.361,5.591
			c1.736,0,3.268-1.098,3.983-2.477l3.115,1.507c-1.2,2.119-3.37,4.187-7.097,4.187C302.011,719.52,298.054,715.946,298.054,710.713
			z"/>
		<path fill="#EC407A" d="M320.321,710.713c0-5.132,3.753-8.808,8.911-8.808c5.132,0,8.884,3.676,8.884,8.808
			c0,5.131-3.753,8.808-8.884,8.808C324.074,719.52,320.321,715.844,320.321,710.713z M334.388,710.713
			c0-3.192-2.017-5.592-5.157-5.592c-3.166,0-5.183,2.4-5.183,5.592c0,3.166,2.017,5.591,5.183,5.591
			C332.371,716.304,334.388,713.878,334.388,710.713z"/>
		<path fill="#EC407A" d="M345.396,719.214v-17.029h6.715c5.336,0,9.038,3.396,9.038,8.501c0,5.157-3.702,8.528-9.012,8.528H345.396
			z M357.447,710.687c0-2.987-1.839-5.31-5.31-5.31h-3.115v10.647h3.089C355.481,716.023,357.447,713.598,357.447,710.687z"/>
		<path fill="#EC407A" d="M368.454,719.214v-17.029h3.626v17.029H368.454z"/>
		<path fill="#EC407A" d="M391.919,719.214l-8.119-11.106v11.106h-3.626v-17.029h3.728l7.889,10.698v-10.698h3.625v17.029H391.919z"
			/>
		<path fill="#EC407A" d="M402.696,710.713c0-5.387,4.085-8.808,9.089-8.808c3.523,0,5.744,1.787,7.021,3.804l-2.987,1.634
			c-0.792-1.2-2.247-2.222-4.034-2.222c-3.115,0-5.361,2.375-5.361,5.592c0,3.216,2.246,5.591,5.361,5.591
			c1.506,0,2.91-0.664,3.6-1.302v-2.042h-4.493v-3.166h8.118v6.536c-1.736,1.94-4.161,3.191-7.225,3.191
			C406.781,719.52,402.696,716.074,402.696,710.713z"/>
		<path fill="#EC407A" d="M449.679,719.214l-1.072-2.885h-7.302l-1.072,2.885h-4.11l6.561-17.029h4.545l6.561,17.029H449.679z
			 M444.956,705.811l-2.655,7.327h5.31L444.956,705.811z"/>
		<path fill="#EC407A" d="M471.996,719.214l-2.987-11.693l-2.962,11.693h-3.855l-4.876-17.029h4.059l2.987,12.306l3.243-12.306
			h2.834l3.216,12.306l2.987-12.306h4.059l-4.851,17.029H471.996z"/>
		<path fill="#EC407A" d="M487.141,719.214v-17.029h12.051v3.191h-8.426v3.575h8.247v3.191h-8.247v3.881h8.426v3.191H487.141z"/>
		<path fill="#EC407A" d="M505.579,716.814l1.991-2.833c1.2,1.251,3.063,2.323,5.413,2.323c2.017,0,2.962-0.894,2.962-1.889
			c0-2.962-9.804-0.894-9.804-7.302c0-2.834,2.451-5.183,6.459-5.183c2.706,0,4.953,0.817,6.637,2.374l-2.017,2.706
			c-1.379-1.276-3.216-1.863-4.953-1.863c-1.531,0-2.4,0.664-2.4,1.685c0,2.681,9.779,0.868,9.779,7.225
			c0,3.115-2.246,5.464-6.817,5.464C509.536,719.52,507.186,718.423,505.579,716.814z"/>
		<path fill="#EC407A" d="M525.981,710.713c0-5.132,3.753-8.808,8.91-8.808c5.131,0,8.885,3.676,8.885,8.808
			c0,5.131-3.754,8.808-8.885,8.808C529.734,719.52,525.981,715.844,525.981,710.713z M540.048,710.713
			c0-3.192-2.017-5.592-5.157-5.592c-3.165,0-5.182,2.4-5.182,5.592c0,3.166,2.017,5.591,5.182,5.591
			C538.031,716.304,540.048,713.878,540.048,710.713z"/>
		<path fill="#EC407A" d="M565.864,719.214v-12.28l-4.8,12.28h-1.583l-4.799-12.28v12.28h-3.626v-17.029h5.082l4.136,10.646
			l4.136-10.646h5.106v17.029H565.864z"/>
		<path fill="#EC407A" d="M577.612,719.214v-17.029h12.051v3.191h-8.425v3.575h8.247v3.191h-8.247v3.881h8.425v3.191H577.612z"/>
		<path fill="#EC407A" d="M607.336,716.814l1.991-2.833c1.2,1.251,3.063,2.323,5.413,2.323c2.017,0,2.962-0.894,2.962-1.889
			c0-2.962-9.804-0.894-9.804-7.302c0-2.834,2.451-5.183,6.459-5.183c2.706,0,4.953,0.817,6.637,2.374l-2.017,2.706
			c-1.379-1.276-3.216-1.863-4.953-1.863c-1.531,0-2.4,0.664-2.4,1.685c0,2.681,9.779,0.868,9.779,7.225
			c0,3.115-2.246,5.464-6.817,5.464C611.294,719.52,608.944,718.423,607.336,716.814z"/>
		<path fill="#EC407A" d="M632.156,719.214v-13.838h-4.979v-3.191h13.582v3.191h-4.953v13.838H632.156z"/>
		<path fill="#EC407A" d="M647.809,712.398v-10.212h3.676v10.11c0,2.375,1.379,4.009,4.009,4.009c2.629,0,3.982-1.634,3.982-4.009
			v-10.11h3.702v10.212c0,4.213-2.502,7.123-7.684,7.123C650.311,719.52,647.809,716.61,647.809,712.398z"/>
		<path fill="#EC407A" d="M671.276,719.214v-17.029h12.05v3.191h-8.425v3.575h8.247v3.191h-8.247v7.072H671.276z"/>
		<path fill="#EC407A" d="M690.58,719.214v-17.029h12.051v3.191h-8.425v3.575h8.247v3.191h-8.247v7.072H690.58z"/>
	</g>
</g>
</svg>
